<svg width="40" height="40" viewBox="0 0 40 40" fill="none" xmlns="http://www.w3.org/2000/svg">
<path d="M7.09825 27.6556C5.2346 24.5139 4.58193 20.8 5.2628 17.2112C5.94368 13.6224 7.91125 10.4055 10.7961 8.16474C13.6809 5.92395 17.2845 4.81336 20.9302 5.0415C24.5759 5.26963 28.0129 6.82081 30.5959 9.40375C33.1788 11.9867 34.73 15.4237 34.9582 19.0694C35.1863 22.7151 34.0758 26.3187 31.835 29.2036C29.5942 32.0884 26.3774 34.056 22.7886 34.7369C19.1998 35.4178 15.4858 34.7651 12.3441 32.9015L12.3442 32.9013L7.16347 34.3815C6.94913 34.4428 6.72231 34.4456 6.50651 34.3897C6.29072 34.3337 6.09381 34.2211 5.93618 34.0635C5.77855 33.9059 5.66594 33.709 5.61002 33.4932C5.55411 33.2774 5.55692 33.0506 5.61816 32.8362L7.09836 27.6555L7.09825 27.6556Z" stroke="white" stroke-width="2" stroke-linecap="round" stroke-linejoin="round"/>
<path d="M23.7678 28.75C22.1233 28.7523 20.4944 28.4301 18.9747 27.8019C17.4549 27.1736 16.074 26.2517 14.9112 25.0888C13.7483 23.926 12.8264 22.5451 12.1981 21.0253C11.5699 19.5056 11.2477 17.8767 11.25 16.2322C11.2537 15.0747 11.7164 13.9659 12.5366 13.149C13.3568 12.3322 14.4675 11.874 15.625 11.875V11.875C15.8149 11.875 16.0014 11.9252 16.1656 12.0205C16.3298 12.1158 16.4659 12.2528 16.5601 12.4177L18.3868 15.6144C18.497 15.8072 18.5538 16.0259 18.5514 16.2479C18.5491 16.4699 18.4876 16.6873 18.3734 16.8777L16.9063 19.3228C17.6611 20.9977 19.0023 22.3389 20.6772 23.0937V23.0937L23.1223 21.6266C23.3127 21.5124 23.5301 21.4509 23.7521 21.4486C23.9741 21.4462 24.1928 21.503 24.3856 21.6132L27.5823 23.4399C27.7472 23.5341 27.8842 23.6702 27.9795 23.8344C28.0748 23.9987 28.125 24.1851 28.125 24.375V24.375C28.1217 25.5312 27.6621 26.6394 26.8462 27.4587C26.0303 28.2779 24.924 28.742 23.7678 28.75V28.75Z" stroke="white" stroke-width="2" stroke-linecap="round" stroke-linejoin="round"/>
</svg>
